<?xml version="1.0" encoding="UTF-8"?>
<svg xmlns="http://www.w3.org/2000/svg" xmlns:xlink="http://www.w3.org/1999/xlink" width="100px" height="100px" viewBox="0 0 100 100" version="1.1">
<g id="surface1">
<path style=" stroke:none;fill-rule:nonzero;fill:rgb(0%,0%,0%);fill-opacity:1;" d="M 98.269531 15.582031 C 96.84375 13.851562 94.730469 12.863281 92.46875 12.863281 L 34.445312 12.863281 C 33.257812 12.863281 32.292969 13.824219 32.292969 15.015625 C 32.292969 16.203125 33.257812 17.167969 34.445312 17.167969 L 92.46875 17.167969 C 93.453125 17.167969 94.332031 17.578125 94.945312 18.324219 C 95.570312 19.082031 95.820312 20.078125 95.632812 21.050781 L 87.027344 64.074219 C 86.695312 65.613281 85.390625 66.6875 83.859375 66.6875 L 36 66.6875 L 16.242188 7.199219 C 15.171875 4.148438 12.28125 2.097656 8.972656 2.097656 C 8.96875 2.097656 8.96875 2.097656 8.96875 2.097656 C 6.160156 2.195312 3.3125 2.195312 2.613281 2.144531 C 1.917969 1.996094 1.167969 2.1875 0.628906 2.726562 C -0.210938 3.566406 -0.210938 4.929688 0.628906 5.773438 C 1.296875 6.4375 1.523438 6.664062 9.042969 6.402344 C 10.453125 6.402344 11.710938 7.292969 12.167969 8.585938 L 32.402344 69.519531 C 32.695312 70.398438 33.519531 70.992188 34.445312 70.992188 L 83.859375 70.992188 C 87.433594 70.992188 90.46875 68.523438 91.242188 64.953125 L 99.859375 21.882812 C 100.292969 19.632812 99.714844 17.335938 98.269531 15.582031 Z M 98.269531 15.582031 "/>
<path style=" stroke:none;fill-rule:nonzero;fill:rgb(0%,0%,0%);fill-opacity:1;" d="M 82.890625 82.832031 L 43.703125 82.832031 C 42.378906 82.832031 41.132812 81.921875 40.683594 80.640625 L 36.488281 68.152344 C 36.109375 67.027344 34.882812 66.417969 33.761719 66.796875 C 32.632812 67.175781 32.027344 68.398438 32.40625 69.523438 L 36.613281 82.035156 C 37.683594 85.089844 40.53125 87.136719 43.703125 87.136719 L 82.890625 87.136719 C 84.078125 87.136719 85.042969 86.175781 85.042969 84.988281 C 85.042969 83.796875 84.078125 82.832031 82.890625 82.832031 Z M 82.890625 82.832031 "/>
<path style=" stroke:none;fill-rule:nonzero;fill:rgb(0%,0%,0%);fill-opacity:1;" d="M 45.210938 82.832031 C 41.058594 82.832031 37.675781 86.214844 37.675781 90.367188 C 37.675781 94.523438 41.058594 97.902344 45.210938 97.902344 C 49.367188 97.902344 52.746094 94.523438 52.746094 90.367188 C 52.746094 86.214844 49.367188 82.832031 45.210938 82.832031 Z M 45.210938 93.597656 C 43.429688 93.597656 41.984375 92.148438 41.984375 90.367188 C 41.984375 88.585938 43.429688 87.136719 45.210938 87.136719 C 46.992188 87.136719 48.441406 88.585938 48.441406 90.367188 C 48.441406 92.148438 46.992188 93.597656 45.210938 93.597656 Z M 45.210938 93.597656 "/>
<path style=" stroke:none;fill-rule:nonzero;fill:rgb(0%,0%,0%);fill-opacity:1;" d="M 82.890625 82.832031 C 78.734375 82.832031 75.355469 86.214844 75.355469 90.367188 C 75.355469 94.523438 78.734375 97.902344 82.890625 97.902344 C 87.042969 97.902344 90.425781 94.523438 90.425781 90.367188 C 90.425781 86.214844 87.042969 82.832031 82.890625 82.832031 Z M 82.890625 93.597656 C 81.109375 93.597656 79.660156 92.148438 79.660156 90.367188 C 79.660156 88.585938 81.109375 87.136719 82.890625 87.136719 C 84.667969 87.136719 86.117188 88.585938 86.117188 90.367188 C 86.117188 92.148438 84.667969 93.597656 82.890625 93.597656 Z M 82.890625 93.597656 "/>
</g>
</svg>
