<?xml version="1.0" encoding="UTF-8"?>
<svg xmlns="http://www.w3.org/2000/svg" xmlns:xlink="http://www.w3.org/1999/xlink" width="100px" height="100px" viewBox="0 0 100 100" version="1.1">
<g id="surface1">
<path style=" stroke:none;fill-rule:nonzero;fill:rgb(0%,0%,0%);fill-opacity:1;" d="M 40.367188 50.019531 L 77.777344 12.609375 C 78.808594 11.582031 79.375 10.207031 79.375 8.742188 C 79.375 7.277344 78.808594 5.902344 77.777344 4.875 L 74.5 1.597656 C 73.472656 0.566406 72.097656 0 70.632812 0 C 69.164062 0 67.792969 0.566406 66.761719 1.597656 L 22.222656 46.140625 C 21.1875 47.171875 20.621094 48.550781 20.625 50.019531 C 20.621094 51.492188 21.1875 52.871094 22.222656 53.902344 L 66.722656 98.402344 C 67.75 99.433594 69.125 100 70.589844 100 C 72.054688 100 73.429688 99.433594 74.457031 98.402344 L 77.734375 95.125 C 79.867188 92.992188 79.867188 89.519531 77.734375 87.390625 Z M 40.367188 50.019531 "/>
</g>
</svg>
